PathFileType	3	(X/Y/Z)	D:\Jess\PFP\Labelled\PA03\20250519\SRRun01.trc
DataRate	CameraRate	NumFrames	NumMarkers	Units	OrigDataRate	OrigDataStartFrame	OrigNumFrames
250.0	250.0	4	33	mm	250.0	35625	2501
Frame#	Time	C7			T10			CLAV			LSHO			RSHO			LASIS			RASIS			LPSIS			RPSIS			LILCR			RILCR			LGTR			LTHI			LLTHI			LLEP			LPSH			LLSH			LDSH			LLMAL			LTOE			L5TH			LHEE			RGTR			RTHI			RLTHI			RLEP			RPSH			RLSH			RDSH			RLMAL			RTOE			R5TH			RHEE			
		X1	Y1	Z1	X2	Y2	Z2	X3	Y3	Z3	X4	Y4	Z4	X5	Y5	Z5	X6	Y6	Z6	X7	Y7	Z7	X8	Y8	Z8	X9	Y9	Z9	X10	Y10	Z10	X11	Y11	Z11	X12	Y12	Z12	X13	Y13	Z13	X14	Y14	Z14	X15	Y15	Z15	X16	Y16	Z16	X17	Y17	Z17	X18	Y18	Z18	X19	Y19	Z19	X20	Y20	Z20	X21	Y21	Z21	X22	Y22	Z22	X23	Y23	Z23	X24	Y24	Z24	X25	Y25	Z25	X26	Y26	Z26	X27	Y27	Z27	X28	Y28	Z28	X29	Y29	Z29	X30	Y30	Z30	X31	Y31	Z31	X32	Y32	Z32	X33	Y33	Z33	

626	142.496	605.7228375545396	1512.270159181483	-235.1176533680071	506.0540781470181	1294.601626391707	-198.0012023780938	717.8374004792154	1404.976259997356	-273.5034943437527	598.1840919701667	1472.876561445458	-396.9057732874011	693.8504388552185	1476.927034869578	-110.0769961076191	649.4342151743401	1004.923579321213	-362.5635043511807	679.5374940674593	991.3979147380492	-110.7467587164934	488.5983511546223	1054.282457808089	-240.9252047989899	494.7985197931554	1056.346501176079	-200.0185307439073	571.0254185431446	1073.11368093712	-391.1512782734872	629.819604183813	1079.845412997163	-78.45794664074489	572.5130623366811	916.8030299264801	-408.3822328587838	753.2323552848072	776.8747612472542	-336.1694298750266	681.3489425041554	655.8318242232635	-386.1144703716619	723.6155356253586	511.1966647051794	-363.3974432457755	799.6292200068168	443.3806580818077	-318.260678974011	736.5079546665825	313.004678524864	-368.0728062097521	809.7146615618169	229.1125883627517	-312.1318537432152	757.8417609842883	116.2690985925591	-339.0184119126909	916.6573492195645	72.44535858767182	-313.9752499949299	888.0688396397907	30.07654202818691	-348.0073830028609	704.5104884314411	89.82629543994257	-289.5496054258841	605.6903348479914	904.2314791853687	-55.78100225631864	643.05745996283	702.4516795456113	-148.6816104041467	527.4074548394472	657.4616300651221	-75.32897569108198	459.3203068785214	525.3895838744297	-97.30551299420304	395.0122132454259	433.6840973720497	-144.8870920050005	258.916194724697	448.0365674784686	-82.46867074511046	194.0086005169436	369.3473048344578	-132.7615153182701	77.11338168541606	379.2244859483764	-92.20381403768019	30.90801785584832	229.5591384448437	-114.1761863754617	2.64488412218031	261.1940673570459	-77.98477080433726	49.40566413021678	441.7071411911683	-140.7893164853014	
627	142.5	604.9896275369227	1509.242355028793	-236.0824098084711	505.3713867857612	1291.157921189222	-199.1340426194091	717.5363574672317	1401.824904465939	-273.8518719334465	598.2519555543021	1469.549647806909	-397.9259752399176	692.5348872803428	1473.960117967822	-110.2890837191901	649.5592497197467	1002.270961699802	-363.1658870142647	680.0421590738636	988.2438752854542	-110.944792744525	488.5640796805699	1050.095535985012	-240.6131330651834	494.8013548844683	1051.986295722834	-199.7545034172841	570.4126528825199	1069.32423565721	-391.5812719836621	629.8257200277234	1076.272113048439	-78.27465391335764	572.678696031265	914.2229664027052	-408.6386340281852	754.2168641175141	774.7689169334683	-337.9053765834101	681.7439177969748	653.6034432068637	-386.6786365256249	723.7573030542903	508.6349742073179	-363.7089247423573	798.4854962561848	439.5890040605702	-318.1564313602686	732.3484468796752	310.3039880707201	-367.0153911090615	802.9027617680488	225.2957866420951	-309.751047606141	748.2560525322677	113.931075725957	-336.2810053035739	906.6503024809749	70.11213345309972	-312.0579220883226	877.6822043146491	28.81223729319868	-347.2118368266995	694.2115244123331	87.37186252360085	-287.2133309786623	606.9280323673115	900.2813587840055	-56.0779704327576	646.012138987033	699.1918084309923	-147.9952689691528	530.9298791020789	652.8167615685064	-74.97807303961137	464.6806489607444	520.6363086651087	-96.70842765815443	399.4300676707375	430.1462203596	-144.264128470352	263.5121217175927	447.8930382627499	-82.15843945097149	196.670019079836	370.9803133192407	-132.5176645237941	80.31443416492186	384.121766528245	-92.00845615147912	28.87689783993225	236.2450191019483	-114.1107152665659	1.691740293456783	268.9061486739809	-78.03117943747975	55.14585514413942	447.4075208503147	-140.6809209046416	
628	142.504	604.2635693203434	1506.192242040015	-237.0553878010548	504.640781982894	1287.669416872632	-200.2847632812141	717.2471038791704	1398.609106487879	-274.1741619246776	598.31014305267	1466.145505437084	-398.9864807798007	691.1661055502838	1470.936828239228	-110.4339748249372	649.6292832913782	999.6952618864182	-363.7350528661443	680.4551862840635	984.9198907962477	-111.1564403434063	488.459120084365	1045.951679971958	-240.2051883461893	494.7208367403656	1047.603646268611	-199.3917680912523	569.8228016876992	1065.66478363393	-392.0073372647086	629.8153449535197	1072.502405086548	-78.07062444078106	572.8249091906677	911.8554964981629	-408.984280600597	755.0100443299579	772.5877834046375	-339.6717099942522	681.911603881805	651.357365412556	-387.2432119590068	723.7773364349488	506.1452400251699	-363.9551159919659	797.2088735586065	435.8891284227356	-317.958084935887	727.9554245468531	307.8119790189323	-365.8695774614142	795.7454186295847	221.7164191295186	-307.2187781627894	738.2946403935254	111.9021596335755	-333.416079087449	896.2566251364653	68.16971895504902	-310.1373861074141	866.9351906207961	27.94714863699076	-346.41004931678	683.5220237673207	85.11525576071851	-284.7750696577569	608.1513084630975	896.1756716920629	-56.40836530540911	648.9410332981956	695.9027556296809	-147.2734761222984	534.4479951618598	648.1205464007062	-74.61346976690173	470.1415846804919	515.831456973419	-96.06785234567623	404.0828683874114	426.5811270337323	-143.637851157713	268.4036116870664	447.5654358963506	-81.83385337876967	199.7402857627767	372.4616878854612	-132.2959174585695	84.01527988568175	388.798420206671	-91.8384861220178	27.4355861213351	242.8305645949194	-114.0019288531865	1.346956315882849	276.5036478860499	-78.05075368229436	61.41295103415198	452.7810157149687	-140.6521030294369	
629	142.508	603.5571375104618	1503.147256409918	-238.0359833782293	503.8651872605786	1284.171845433667	-201.4514373039797	716.9746468316961	1395.349356137772	-274.4696378509905	598.3606573292107	1462.68681366962	-400.0878253315282	689.7614832760912	1467.876809423804	-110.515087509185	649.6323945024948	997.2082794973626	-364.2746695159408	680.7639194818072	981.4546779815583	-111.386537172944	488.276399057665	1041.885969308331	-239.7068828227024	494.5482743580192	1043.235273816235	-198.9337928412079	569.2591766237019	1062.170298820287	-392.4221521827455	629.7725162015536	1068.566879117871	-77.84913948290891	572.9289161032567	909.6973583460554	-409.408545217545	755.5963640603774	770.3404869802763	-341.4452425469713	681.836694299841	649.0967196393656	-387.7876696142899	723.6555839221068	503.7469681500921	-364.1349960747343	795.7856286408199	432.3186220555621	-317.6651027978014	723.3544061637193	305.5584352404567	-364.667947412003	788.2902288605429	218.4133278455662	-304.5884355954091	728.0362036398296	110.2074476210101	-330.4907953677607	885.5482888914979	66.61059493242271	-308.2526037390674	855.8994549452053	27.45825978315356	-345.6200784101379	672.5215091295829	83.09237734350427	-282.2944259450479	609.3630281641116	891.9460988932448	-56.77390904501929	651.8503392706932	692.6196249332303	-146.5384255470302	537.9717895754709	643.4034630061685	-74.24288239106474	475.7142256852194	511.0039812035891	-95.39791368661102	408.9773750174519	423.0078208288613	-143.0186363734869	273.5838848399636	447.0657739691128	-81.50154476683834	203.2188633666679	373.791890162178	-132.1018003046632	88.20092281303401	393.2382171310297	-91.69760182069065	26.62549057161767	249.2731268849361	-113.8525532368407	1.6427628288733	283.9308750233631	-78.04086312000744	68.15531491625896	457.8069612402975	-140.7008540653969	
